<?xml version="1.0" standalone="no"?><svg xmlns="http://www.w3.org/2000/svg" viewBox="0 -480 1200 600"><path fill="#0099ff" fill-opacity="1" d="M0,160L24,149.3C48,139,96,117,144,101.3C192,85,240,75,288,64C336,53,384,43,432,53.3C480,64,528,96,576,122.7C624,149,672,171,720,160C768,149,816,107,864,122.7C912,139,960,213,1008,245.3C1056,277,1104,267,1152,229.3C1200,192,1248,128,1296,101.3C1344,75,1392,85,1416,90.7L1440,96L1440,0L1416,0C1392,0,1344,0,1296,0C1248,0,1200,0,1152,0C1104,0,1056,0,1008,0C960,0,912,0,864,0C816,0,768,0,720,0C672,0,624,0,576,0C528,0,480,0,432,0C384,0,336,0,288,0C240,0,192,0,144,0C96,0,48,0,24,0L0,0Z"></path></svg>